<svg width="10" height="17" viewBox="0 0 10 17" fill="none" xmlns="http://www.w3.org/2000/svg">
  <path d="M4.7 2.9c.9 0 1.6.7 1.6 1.7 0 .9-.7 1.6-1.6 1.6-1 0-1.6-.7-1.6-1.6 0-1 .7-1.7 1.6-1.7Zm0 5.7a4 4 0 0 0 4-4 4 4 0 0 0-4-4 4 4 0 0 0-4 4 4 4 0 0 0 4 4ZM6.3 12c.8-.1 1.5-.5 2.3-1 .5-.3.7-1 .3-1.6-.3-.5-1-.7-1.6-.3-1.6 1-3.7 1-5.3 0-.5-.4-1.2-.2-1.6.3-.3.6-.1 1.3.4 1.7.7.4 1.5.8 2.3 1L.9 14.1c-.5.5-.5 1.2 0 1.7a1.1 1.1 0 0 0 1.6 0l2.2-2.2 2.1 2.2c.5.5 1.2.5 1.7 0 .4-.5.4-1.2 0-1.7L6.3 12Z" fill="#030A1A"/>
</svg>
