<svg width="13" height="8" viewBox="0 0 13 8" fill="none" xmlns="http://www.w3.org/2000/svg">
  <path d="M7.7 6c.5 0 1 1 1.6 1.4.5.3.8.3.8.3h1.6s.9-.1.5-.8c0 0-.2-.5-1.2-1.4-1-1-.9-.8.3-2.4.8-1 1-1.6 1-1.9-.1-.2-.7-.2-.7-.2H9.8l-.4.3-.6 1.4C8 4.1 7.6 4.2 7.5 4.1c-.3-.2-.2-.8-.2-1.2 0-1.4.2-2-.4-2A3 3 0 0 0 6 .6c-.6 0-1.2 0-1.5.2-.2 0-.3.3-.2.3 0 0 .4 0 .5.3.2.2.2.8.2.8S5 4 4.7 4.1c-.2.1-.5-.1-1.3-1.4l-.6-1.4-.2-.2H.3v.4s1.3 3.2 2.9 4.8c1.4 1.4 3 1.3 3 1.3h.7l.3-.1v-.3s0-1 .5-1.1Z" fill="#030A1A"/>
</svg>
