<svg width="119" height="23" viewBox="0 0 119 23" fill="none" xmlns="http://www.w3.org/2000/svg">
  <path d="M5.8 22.3a8 8 0 0 1-3-.6c-1-.3-1.6-1-2-1.9-.5-1-.7-2.2-.7-3.8v-1.3h3.5v1.5c0 1 .1 1.8.3 2.4.2.5.5 1 .8 1.1.3.2.7.3 1.1.3.7 0 1.3-.2 1.7-.7.4-.4.6-1.3.6-2.6 0-1-.1-1.7-.4-2.2a3 3 0 0 0-1.4-1.1c-.6-.4-1.3-.7-2.3-1A9 9 0 0 1 2 11c-.6-.5-1-1.1-1.3-1.9C.4 8.5.2 7.6.2 6.4a9 9 0 0 1 .5-3.2c.4-.9 1-1.5 1.8-1.9.9-.4 2-.6 3.4-.6 1.8 0 3.2.4 4.2 1.2 1 .9 1.4 2 1.4 3.6V8H8.1V6.6c0-1.1-.1-2-.5-2.4-.3-.5-.9-.8-1.7-.8-.7 0-1.3.3-1.7.7-.3.5-.5 1.2-.5 2.2 0 .9.2 1.6.5 2 .4.5.8.9 1.3 1.1l1.7.8c1 .4 2 .8 2.6 1.2.7.4 1.2 1 1.5 1.7.3.8.5 1.8.5 3.1 0 1.5-.3 2.7-.8 3.6-.5.9-1.2 1.5-2 1.9a8 8 0 0 1-3.2.6Zm15.1.1-2.3-.1c-.6-.2-1.2-.4-1.8-.8-.5-.3-.9-.9-1.1-1.6a8 8 0 0 1-.5-2.9V.7h3.5V18c0 .6 0 1.1.3 1.5.2.3.5.6.8.7l1.1.2c.4 0 .8 0 1.1-.2.4-.1.6-.4.8-.7.2-.4.3-.9.3-1.5V.7h3.5V17c0 1.2-.2 2.2-.5 3-.2.6-.6 1.2-1.1 1.5-.5.4-1.1.6-1.8.8l-2.3.1Zm10-.4V.7H38c1.4 0 2.4.3 3.1 1 .7.5 1.1 1.4 1.1 2.6V8c0 .9-.1 1.7-.4 2.5-.2.8-.6 1.4-1.3 1.9-.6.5-1.5.7-2.7.7h-3.4V22h-3.6Zm3.5-10.7h2.2c.7 0 1.3-.3 1.6-.9.4-.5.6-1.5.6-2.7v-2c0-1-.2-1.9-.5-2.3-.3-.5-.7-.8-1.3-.8h-2.6v8.7ZM45.6 22V.7h9.6v2.5h-6v6.4h5v2.7h-5v7.3h6V22h-9.6Zm12.9 0V.7h7.3c1.3 0 2.4.3 3 1 .8.5 1.2 1.4 1.2 2.6v3.4c0 1.1-.3 2.1-1 2.9-.6.7-1.6 1-2.8 1.1.8.1 1.3.4 1.7.8.3.5.7 1.2 1 2.2l2 7.3h-3.8l-1.7-7a10 10 0 0 0-.6-1.7c-.2-.4-.5-.7-1-.7H62V22h-3.5ZM62 10.2h2.3c.9 0 1.4-.2 1.8-.6.3-.5.5-1.1.5-2V4.9c0-.8-.1-1.4-.5-1.7-.3-.4-.8-.6-1.5-.6H62v7.6Zm16.6 12.2c-.8 0-1.6-.1-2.3-.4-.7-.2-1.3-.7-1.8-1.5-.4-.7-.6-1.9-.6-3.4V5.2a5 5 0 0 1 .7-3c.5-.6 1.2-1 2-1.3.9-.3 1.9-.4 3-.4s2.1.1 3 .4c.9.2 1.5.7 2 1.4s.8 1.7.8 3V8H82v-3c0-.7 0-1.3-.3-1.6-.2-.4-.5-.6-.8-.8l-1.2-.1-1.2.1c-.4.2-.7.4-.9.8-.2.3-.3.9-.3 1.6v12.8c0 .7.1 1.2.3 1.6.2.3.5.6.9.7l1.2.2c.7 0 1.2-.2 1.6-.6.5-.5.7-1.1.7-2v-4.3h-2v-2h5.4V22h-2.6l-.2-1.8a4.9 4.9 0 0 1-.4.6c-.2.4-.7.8-1.2 1.1-.6.3-1.4.5-2.4.5ZM92 22v-9.1L88 .7h3.5L93.6 8l.2 1.1L94 8 96.3.7h3.2L95.4 13v9h-3.5Zm10.5 0V.7h4.3l3.6 15.1 3.6-15h4.2V22h-3V5.6L111.3 22h-2.3l-3.6-16.4V22h-3Z" fill="#fff"/>
</svg>
